# xmcd
#
# Track frame offsets: 
#        150
#        11201
#        21238
#        32363
#        44233
#        53676
#        68453
#        86543
#        103674
#        117922
#        132153
#        142242
#        150550
#        162292
#        180889
#        191802
#        203130
#        213216
#
# Disc length: 3002 seconds
#
# Revision: 1
# Processed by: cddbd v1.5.2PL0 Copyright (c) Steve Scherf et al.
# Submitted via: ExactAudioCopy v0.99pb4
#
DISCID=f40bb812
DTITLE=Penelope - Headed for a Good Time
DYEAR=2001
DGENRE=Country
TTITLE0=Flat Tire, Stick-Shifting, Blues
TTITLE1=I Love The Way You Lie
TTITLE2=Wife Of A Truck Driving Man
TTITLE3=My Daddy Was The Best
TTITLE4=When You Dream of Her, Reach For Me
TTITLE5=Hard Country Music
TTITLE6=Suddenly Single
TTITLE7=When the Lady sings the Blues
TTITLE8=Going on, Going on
TTITLE9=I'm Going to Get Over You
TTITLE10=Singles Bar
TTITLE11=I'm Tired Of Floor Mopping
TTITLE12=No Road From The Barroom
TTITLE13=Jumping From The Frying Pan
TTITLE14=Its Not That Good Being Poor
TTITLE15=Cheating Again
TTITLE16=There's A Wolf Howling
TTITLE17=Headed For A Good Time!
EXTD=
EXTT0=
EXTT1=
EXTT2=
EXTT3=
EXTT4=
EXTT5=
EXTT6=
EXTT7=
EXTT8=
EXTT9=
EXTT10=
EXTT11=
EXTT12=
EXTT13=
EXTT14=
EXTT15=
EXTT16=
EXTT17=
PLAYORDER=
